<svg xmlns="http://www.w3.org/2000/svg" viewBox="0 0 67.66 55.771">
  <defs>
    <style>
      .cls-1 {
        fill: #cb2023;
      }
    </style>
  </defs>
  <g id="group-of-people-in-a-formation" transform="translate(0 -7.555)">
    <path id="Path_80" data-name="Path 80" class="cls-1" d="M61.369,25.912a3.83,3.83,0,1,0,3.83,3.83A3.838,3.838,0,0,0,61.369,25.912Zm-55.07,0a3.83,3.83,0,1,0,3.832,3.83A3.838,3.838,0,0,0,6.3,25.912Zm43.67-6.967a5.7,5.7,0,1,0,5.7,5.7A5.7,5.7,0,0,0,49.968,18.945ZM67.66,53.612H61.165V41.658a11.13,11.13,0,0,0-1.573-5.623,6.205,6.205,0,0,1,8.068,6.014V53.612ZM17.691,18.945a5.7,5.7,0,1,0,5.694,5.7A5.709,5.709,0,0,0,17.691,18.945ZM6.3,35.75a6.234,6.234,0,0,1,1.77.286A11.03,11.03,0,0,0,6.5,41.658V53.612H0V42.049A6.31,6.31,0,0,1,6.3,35.75ZM33.824,7.555a8.43,8.43,0,1,0,8.433,8.428A8.44,8.44,0,0,0,33.824,7.555ZM59.079,58.061H49.13V39.873A15.114,15.114,0,0,0,47.4,32.959a8.987,8.987,0,0,1,11.677,8.7ZM18.52,39.873V58.061H8.583v-16.4A9.12,9.12,0,0,1,17.7,32.547a8.951,8.951,0,0,1,2.556.412A15.108,15.108,0,0,0,18.52,39.873Zm2.086,23.453H47.043V39.873a13.218,13.218,0,0,0-26.437,0Z"/>
  </g>
</svg>
