<svg xmlns="http://www.w3.org/2000/svg" width="1634.553" height="230.145" viewBox="0 0 1634.553 230.145">
  <g id="Group_1" data-name="Group 1" transform="translate(44.492 -708.552)">
    <path id="Path_7" data-name="Path 7" d="M0,50S-143.746-10-273.246,10-433.363,57.412-621.991,22s-397.69,92-617.418,16-365.126,0-365.126,0l17.254,118.524L-9.746,177.191Z" transform="translate(1589.535 761)" fill="none" stroke="#735c7f" stroke-miterlimit="10" stroke-width="1"/>
    <path id="Path_7-2" data-name="Path 7" d="M0,130.892S135.253-5.657,261,.245,491.566,130.892,610.806,130.892,992.127,10.855,1274.218,94.856s303.317-56.368,303.317-56.368V201.38L0,222.047Z" transform="translate(-15 716)" fill="none" stroke="#3e4d75" stroke-miterlimit="10" stroke-width="1"/>
    <path id="Path_7-3" data-name="Path 7" d="M0,130.892S-135.253-5.657-261,.245-491.566,130.892-610.806,130.892-992.127,10.855-1274.218,94.856-1613.535,0-1613.535,0l36,201.38L0,222.047Z" transform="translate(1569.535 709)" fill="none" stroke="#405e52" stroke-miterlimit="10" stroke-width="1"/>
  </g>
</svg>
